<svg width="15" height="18" viewBox="0 0 15 18" fill="none" xmlns="http://www.w3.org/2000/svg">
<path d="M13.0477 15.531C12.4401 15.4845 12.4979 14.922 13.0709 14.8162C14.0227 14.6407 14.4412 14.1307 14.4412 13.659C14.4412 13.2622 14.1442 12.8925 13.6177 12.7733C12.9899 12.6315 13.1197 12.2055 13.6409 12.1642C14.49 12.0968 14.907 11.5913 14.907 11.1068C14.907 10.683 14.5882 10.2758 13.9612 10.1917C13.3184 10.1055 13.5277 9.64125 13.9844 9.50025C14.3752 9.38025 15 9.12525 15 8.36775C15 7.86375 14.625 7.19625 13.2967 7.25025C12.3756 7.28775 10.5463 7.10175 9.56223 6.5865C10.2425 3.84375 10.079 0 8.29692 0C7.10136 0 6.87484 1.35525 6.51558 2.60175C5.22701 7.0785 2.64838 7.89825 0 8.304V15.75C5.01625 15.75 6.37532 18 10.1293 18C12.5286 18 13.7684 16.6987 13.7684 16.0005C13.7677 15.75 13.5637 15.5715 13.0477 15.531Z" fill="#19C08A"/>
</svg>
