<svg width="16" height="14" viewBox="0 0 16 14" fill="none" xmlns="http://www.w3.org/2000/svg">
<path d="M8.93867 10.8182C9.27067 8.30645 12.6667 6.23827 12.6667 0H3.33333C3.33333 6.23827 6.73667 8.30645 7.06933 10.8182H8.93867ZM6.52933 3.51782L7.50267 3.38927L7.93133 2.54545L8.36 3.38927L9.33333 3.51782L8.62467 4.16755L8.798 5.09091L7.93133 4.64864L7.06467 5.09091L7.238 4.16755L6.52933 3.51782ZM3.994 6.14473C4.18467 6.55073 4.384 6.92809 4.582 7.27936C1.872 6.42155 0.248 3.885 0 1.27273H2.718C2.742 1.57945 2.77133 1.88045 2.81067 2.16682H1.018C1.30267 3.44018 2.05067 5.17618 3.994 6.14473ZM10.6667 13.1212V14H5.33333V13.1212C6.62733 13.1212 6.91267 12.2093 7.04733 11.4545H8.958C9.08667 12.2099 9.33467 13.1212 10.6667 13.1212ZM16 1.27273C15.752 3.885 14.128 6.42155 11.418 7.27873C11.616 6.92745 11.8153 6.55009 12.006 6.14409C13.9493 5.17618 14.6973 3.43955 14.982 2.16618H13.19C13.2293 1.87982 13.2587 1.57945 13.2827 1.27209H16V1.27273Z" fill="#19C08A"/>
</svg>
