<svg width="16" height="12" viewBox="0 0 16 12" fill="none" xmlns="http://www.w3.org/2000/svg">
<path d="M16 11.3333V12H13.3333V11.3333H13.89C14.062 11.3333 14.16 11.2147 14.104 11.052L13.7887 10.138H12.3013L11.918 9.078H13.448L12.54 6.36L11.7707 8.66067L11.1847 6.99533L11.7987 5.33333H13.28L15.302 11.0107C15.376 11.2207 15.4647 11.3333 15.6873 11.3333H16ZM12 10.6667H12.6667V12H8V10.6667H8.35467C8.66067 10.6667 8.876 10.3647 8.77667 10.0753L8.23267 8.66667H4.078L3.53467 10.0753C3.43533 10.3647 3.65067 10.6667 3.95667 10.6667H4.66667V12H0V10.6667H0.286667C0.682 10.6667 1.03533 10.4167 1.16667 10.0433L4.838 0H7.47267L11.144 10.0433C11.2753 10.4167 11.604 10.6667 12 10.6667ZM4.74267 6.66667H7.568L6.062 2.534L4.74267 6.66667Z" fill="#2AC880"/>
</svg>
