<svg width="21" height="21" viewBox="0 0 21 21" fill="none" xmlns="http://www.w3.org/2000/svg">
<path d="M16.625 1.75C18.0723 1.75 19.25 2.92775 19.25 4.375V16.625C19.25 18.0723 18.0723 19.25 16.625 19.25H4.375C2.92775 19.25 1.75 18.0723 1.75 16.625V4.375C1.75 2.92775 2.92775 1.75 4.375 1.75H16.625ZM16.625 0H4.375C1.95913 0 0 1.95913 0 4.375V16.625C0 19.0409 1.95913 21 4.375 21H16.625C19.0417 21 21 19.0409 21 16.625V4.375C21 1.95913 19.0417 0 16.625 0ZM9.625 7H8.75V5.25H9.625V6.125H11.375V7H10.5V7.875H9.625V7ZM11.375 17.5V16.625H10.5V17.5H11.375ZM10.5 4.375V3.5H8.75V4.375H9.625V5.25H10.5V4.375ZM17.5 3.5V8.75H16.625V7.875H13.125V3.5H17.5ZM16.625 7V4.375H14V7H16.625ZM4.375 8.75H3.5V9.625H5.25V8.75H4.375ZM4.375 11.375H5.25V12.25H6.125V9.625H5.25V10.5H3.5V12.25H4.375V11.375ZM8.75 12.25V14H9.625V12.25H8.75ZM12.25 3.5H11.375V6.125H12.25V3.5ZM12.25 7.875V7H11.375V7.875H12.25ZM14.875 6.125H15.75V5.25H14.875V6.125ZM6.125 5.25H5.25V6.125H6.125V5.25ZM7.875 3.5V7.875H3.5V3.5H7.875ZM7 4.375H4.375V7H7V4.375ZM14.875 8.75V9.625H14V8.75H12.25V9.625H11.375V8.75H8.75V7.875H7.875V8.75H7V9.625H7.875V11.375H8.75V10.5H9.625V12.25H10.5V10.5H13.125V11.375H11.375V12.25H13.125V13.125H14V10.5H14.875V11.375H15.75V13.125H16.625V12.25H17.5V11.375H16.625V10.5H15.75V9.625H16.625V8.75H14.875ZM5.25 15.75H6.125V14.875H5.25V15.75ZM3.5 13.125H7.875V17.5H3.5V13.125ZM4.375 16.625H7V14H4.375V16.625ZM14.875 14V13.125H14V14H14.875ZM14.875 14.875H14V15.75H13.125V14.875H12.25V14H13.125V13.125H11.375V12.25H10.5V14H9.625V14.875H8.75V17.5H9.625V16.625H10.5V15.75H12.25V17.5H13.125V16.625H14V17.5H15.75V16.625H16.625V15.75H14.875V14.875ZM7 12.25H7.875V11.375H7V12.25ZM15.75 14V14.875H16.625V15.75H17.5V13.125H16.625V14H15.75ZM17.5 17.5V16.625H16.625V17.5H17.5ZM17.5 10.5V9.625H16.625V10.5H17.5Z" fill="#2AC880"/>
</svg>
