<?xml version="1.0" encoding="utf-8"?><svg xmlns="http://www.w3.org/2000/svg" xmlns:xlink="http://www.w3.org/1999/xlink"><symbol viewBox="0 0 16 14" id="arrow-down" xmlns="http://www.w3.org/2000/svg"><path d="M7.293 13.707a1 1 0 0 0 1.414 0l6.364-6.364a1 1 0 0 0-1.414-1.414L8 11.586 2.343 5.929A1 1 0 0 0 .93 7.343l6.364 6.364ZM7 0v13h2V0H7Z"/></symbol><symbol viewBox="0 0 22 27" id="bell" xmlns="http://www.w3.org/2000/svg"><path d="M11 26.813a2.758 2.758 0 0 0 2.75-2.75h-5.5a2.75 2.75 0 0 0 2.75 2.75Zm8.25-8.25v-6.875c0-4.222-2.255-7.756-6.188-8.69v-.936A2.06 2.06 0 0 0 11 0a2.06 2.06 0 0 0-2.063 2.063v.934c-3.946.936-6.187 4.456-6.187 8.69v6.876L0 21.313v1.375h22v-1.375l-2.75-2.75Z"/></symbol><symbol viewBox="0 0 18 11" id="caret-down" xmlns="http://www.w3.org/2000/svg"><path d="M8.9 10.1 7.451 8.653 15.653.452 17.1 1.899 8.9 10.1Z"/><path d="M.698 1.9 2.146.451l8.2 8.2L8.9 10.1.7 1.9Z"/></symbol><symbol viewBox="0 0 14 9" id="caret-up" xmlns="http://www.w3.org/2000/svg"><path d="m7.201.603 1.165 1.164-6.599 6.598L.603 7.201 7.201.603Z"/><path d="m13.8 7.2-1.165 1.165-6.598-6.598L7.2.603 13.8 7.2Z"/></symbol><symbol id="coins" xml:space="preserve" viewBox="0 0 28 30" xmlns="http://www.w3.org/2000/svg"><style>.st0{fill:none;stroke:#000;stroke-width:2;stroke-linecap:round;stroke-linejoin:round;stroke-miterlimit:10}</style><path d="M11 2C7 2 4 3.7 4 6s3 4 7 4 7-1.7 7-4-3-4-7-4z"/><path d="M11 12c-2.9 0-5.4-.8-7-2.1V11c0 2.3 3 4 7 4s7-1.7 7-4V9.9c-1.6 1.3-4.1 2.1-7 2.1z"/><path d="M11 17c-2.9 0-5.4-.8-7-2.1V16c0 2.3 3 4 7 4s7-1.7 7-4v-1.1c-1.6 1.3-4.1 2.1-7 2.1z"/><path d="M11 22c-2.9 0-5.4-.8-7-2.1V21c0 2.3 3 4 7 4s7-1.7 7-4v-1.1c-1.6 1.3-4.1 2.1-7 2.1z"/><path d="M11 27c-2.9 0-5.4-.8-7-2.1V26c0 2.3 3 4 7 4s7-1.7 7-4v-1.1c-1.6 1.3-4.1 2.1-7 2.1zm10-3h-1v3h1c4 0 7-1.7 7-4v-1.1c-1.6 1.3-4.1 2.1-7 2.1zm0-5h-1v3h1c4 0 7-1.7 7-4v-1.1c-1.6 1.3-4.1 2.1-7 2.1zm0-10h-1v8h1c4 0 7-1.7 7-4s-3-4-7-4z"/></symbol><symbol viewBox="0 0 16 12" id="comment" xmlns="http://www.w3.org/2000/svg"><path d="M16 11.333V12h-2.667v-.667h.557c.172 0 .27-.118.214-.281l-.315-.914H12.3l-.383-1.06h1.53L12.54 6.36l-.77 2.3-.585-1.665.614-1.662h1.481l2.022 5.678c.074.21.163.322.385.322H16Zm-4-.666h.667V12H8v-1.333h.355a.447.447 0 0 0 .422-.592l-.544-1.408H4.078l-.543 1.408c-.1.29.116.592.422.592h.71V12H0v-1.333h.287c.395 0 .748-.25.88-.624L4.838 0h2.635l3.671 10.043c.131.374.46.624.856.624Zm-7.257-4h2.825L6.062 2.534l-1.32 4.133Z"/></symbol><symbol viewBox="0 0 11 20" id="facebook" xmlns="http://www.w3.org/2000/svg"><path d="M6.75 6.875v-2.5c0-.69.56-1.25 1.25-1.25h1.25V0h-2.5A3.75 3.75 0 0 0 3 3.75v3.125H.5V10H3v10h3.75V10h2.5l1.25-3.125H6.75Z"/></symbol><symbol viewBox="0 0 16 14" id="favorites" xmlns="http://www.w3.org/2000/svg"><path d="M8 2.186C6.674-1.25 0-.739 0 4.456 0 7.046 2.04 10.49 8 14c5.96-3.51 8-6.955 8-9.543C16-.71 9.333-1.27 8 2.186Z"/></symbol><symbol viewBox="0 0 16 14" id="headphones" xmlns="http://www.w3.org/2000/svg"><path d="M4 14V7c-2.69 0-4 1.728-4 3.5C0 12.286 1.33 14 4 14Zm12-3.5C16 8.728 14.69 7 12 7v7c2.67 0 4-1.714 4-3.5ZM8 1.895C5.414 1.89 3.426 3.39 2.838 5.837a6.03 6.03 0 0 0-1.44.456C1.816 2.793 4.276 0 8 0c3.726 0 6.193 2.793 6.61 6.297a6.012 6.012 0 0 0-1.445-.458C12.577 3.389 10.587 1.89 8 1.895Z"/></symbol><symbol viewBox="0 0 20 20" id="instagram" xmlns="http://www.w3.org/2000/svg"><g clip-path="url(#a)"><path d="M14.48 0H5.52A5.525 5.525 0 0 0 0 5.52v8.96A5.525 5.525 0 0 0 5.52 20h8.96A5.526 5.526 0 0 0 20 14.48V5.52A5.525 5.525 0 0 0 14.48 0Zm3.745 14.48a3.75 3.75 0 0 1-3.744 3.745H5.519a3.749 3.749 0 0 1-3.745-3.744V5.519A3.749 3.749 0 0 1 5.52 1.774h8.961a3.75 3.75 0 0 1 3.745 3.745v8.962Z"/><path d="M10 4.847A5.16 5.16 0 0 0 4.847 10 5.16 5.16 0 0 0 10 15.153 5.16 5.16 0 0 0 15.154 10 5.16 5.16 0 0 0 10 4.847Zm0 8.532A3.383 3.383 0 0 1 6.621 10a3.383 3.383 0 0 1 3.38-3.379A3.383 3.383 0 0 1 13.378 10 3.383 3.383 0 0 1 10 13.379Zm5.37-10.037a1.306 1.306 0 0 0-1.302 1.301 1.305 1.305 0 0 0 1.302 1.301c.343 0 .678-.14.92-.38a1.307 1.307 0 0 0 0-1.84 1.307 1.307 0 0 0-.92-.382Z"/></g></symbol><symbol viewBox="0 0 15 18" id="like" xmlns="http://www.w3.org/2000/svg"><path d="M13.048 15.531c-.608-.046-.55-.609.023-.715.952-.175 1.37-.685 1.37-1.157 0-.397-.297-.767-.823-.886-.628-.141-.498-.567.023-.609.849-.067 1.266-.573 1.266-1.057 0-.424-.319-.831-.946-.915-.643-.087-.433-.55.023-.692C14.375 9.38 15 9.125 15 8.368c0-.504-.375-1.172-1.703-1.118-.921.038-2.75-.148-3.735-.663C10.242 3.844 10.08 0 8.297 0 7.1 0 6.875 1.355 6.516 2.602 5.227 7.078 2.648 7.898 0 8.304v7.446c5.016 0 6.375 2.25 10.13 2.25 2.399 0 3.638-1.301 3.638-2 0-.25-.204-.428-.72-.469Z"/></symbol><symbol viewBox="0 0 18 18" id="pen" xmlns="http://www.w3.org/2000/svg"><path d="M9 0a9 9 0 1 0 0 18A9 9 0 0 0 9 0ZM5.25 12.75l.755-3.027 2.329 2.329-3.084.698Zm3.87-1.41-2.401-2.4 4.38-4.44L13.5 6.9l-4.38 4.44Z"/></symbol><symbol viewBox="0 0 16 12" id="photo" xmlns="http://www.w3.org/2000/svg"><path d="M3.333 3.667a1 1 0 1 1 2.001 0 1 1 0 0 1-2 0Zm6 .333L7.654 6.667 6 5.36 3.333 9.333h9.334L9.333 4Zm5.334-2.667v9.334H1.333V1.333h13.334ZM16 0H0v12h16V0Z"/></symbol><symbol viewBox="0 0 16 16" id="play" xmlns="http://www.w3.org/2000/svg"><path d="M8 1.333A6.674 6.674 0 0 1 14.667 8 6.674 6.674 0 0 1 8 14.667 6.674 6.674 0 0 1 1.333 8 6.674 6.674 0 0 1 8 1.333ZM8 0a8 8 0 1 0 0 16A8 8 0 0 0 8 0ZM6 11.333V4.667l6 3.43-6 3.236Z"/></symbol><symbol viewBox="0 0 23 26" id="play-solid" xmlns="http://www.w3.org/2000/svg"><path d="M23 13 .5 25.99V.01L23 13Z"/></symbol><symbol viewBox="0 0 16 16" id="plus" xmlns="http://www.w3.org/2000/svg"><path d="M6.616.154h2.769v15.692H6.616z"/><path d="M15.847 6.616v2.769H.155v-2.77z"/></symbol><symbol viewBox="0 0 16 14" id="rating" xmlns="http://www.w3.org/2000/svg"><path d="M8.939 10.818C9.27 8.306 12.667 6.238 12.667 0H3.333c0 6.238 3.404 8.306 3.736 10.818h1.87Zm-2.41-7.3.974-.129.428-.844.429.844.973.129-.708.65.173.923-.867-.442-.866.442.173-.923-.709-.65ZM3.994 6.145c.19.406.39.783.588 1.134C1.872 6.422.248 3.885 0 1.273h2.718c.024.306.053.607.093.894H1.018c.285 1.273 1.033 3.01 2.976 3.978Zm6.673 6.976V14H5.333v-.879c1.294 0 1.58-.912 1.714-1.667h1.911c.129.756.377 1.667 1.709 1.667ZM16 1.273c-.248 2.612-1.872 5.149-4.582 6.006.198-.352.397-.729.588-1.135 1.943-.968 2.691-2.704 2.976-3.978H13.19c.04-.286.069-.587.093-.894H16Z"/></symbol><symbol viewBox="0 0 21 21" id="scan" xmlns="http://www.w3.org/2000/svg"><path d="M16.625 1.75a2.628 2.628 0 0 1 2.625 2.625v12.25a2.628 2.628 0 0 1-2.625 2.625H4.375a2.628 2.628 0 0 1-2.625-2.625V4.375A2.628 2.628 0 0 1 4.375 1.75h12.25Zm0-1.75H4.375A4.375 4.375 0 0 0 0 4.375v12.25A4.375 4.375 0 0 0 4.375 21h12.25A4.375 4.375 0 0 0 21 16.625V4.375A4.375 4.375 0 0 0 16.625 0Zm-7 7H8.75V5.25h.875v.875h1.75V7H10.5v.875h-.875V7Zm1.75 10.5v-.875H10.5v.875h.875ZM10.5 4.375V3.5H8.75v.875h.875v.875h.875v-.875Zm7-.875v5.25h-.875v-.875h-3.5V3.5H17.5ZM16.625 7V4.375H14V7h2.625ZM4.375 8.75H3.5v.875h1.75V8.75h-.875Zm0 2.625h.875v.875h.875V9.625H5.25v.875H3.5v1.75h.875v-.875Zm4.375.875V14h.875v-1.75H8.75Zm3.5-8.75h-.875v2.625h.875V3.5Zm0 4.375V7h-.875v.875h.875Zm2.625-1.75h.875V5.25h-.875v.875Zm-8.75-.875H5.25v.875h.875V5.25Zm1.75-1.75v4.375H3.5V3.5h4.375ZM7 4.375H4.375V7H7V4.375Zm7.875 4.375v.875H14V8.75h-1.75v.875h-.875V8.75H8.75v-.875h-.875v.875H7v.875h.875v1.75h.875V10.5h.875v1.75h.875V10.5h2.625v.875h-1.75v.875h1.75v.875H14V10.5h.875v.875h.875v1.75h.875v-.875h.875v-.875h-.875V10.5h-.875v-.875h.875V8.75h-1.75Zm-9.625 7h.875v-.875H5.25v.875ZM3.5 13.125h4.375V17.5H3.5v-4.375Zm.875 3.5H7V14H4.375v2.625ZM14.875 14v-.875H14V14h.875Zm0 .875H14v.875h-.875v-.875h-.875V14h.875v-.875h-1.75v-.875H10.5V14h-.875v.875H8.75V17.5h.875v-.875h.875v-.875h1.75v1.75h.875v-.875H14v.875h1.75v-.875h.875v-.875h-1.75v-.875ZM7 12.25h.875v-.875H7v.875ZM15.75 14v.875h.875v.875h.875v-2.625h-.875V14h-.875Zm1.75 3.5v-.875h-.875v.875h.875Zm0-7v-.875h-.875v.875h.875Z"/></symbol><symbol viewBox="0 0 18 18" id="search" xmlns="http://www.w3.org/2000/svg"><path d="m18 16.235-4.691-4.654a7.222 7.222 0 0 0 1.404-4.283c0-4.024-3.3-7.298-7.357-7.298C3.3 0 0 3.274 0 7.298s3.3 7.297 7.356 7.297a7.35 7.35 0 0 0 4.148-1.274L16.22 18 18 16.235ZM2.158 7.296c0-2.843 2.332-5.157 5.199-5.157s5.199 2.313 5.199 5.158c0 2.844-2.332 5.157-5.2 5.157-2.867 0-5.198-2.313-5.198-5.157Z"/></symbol><symbol viewBox="0 0 18 18" id="share" xmlns="http://www.w3.org/2000/svg"><path d="M3.75 5.25a3.75 3.75 0 1 1 0 7.5 3.75 3.75 0 0 1 0-7.5Zm8.341 9.049A2.958 2.958 0 0 0 12 15a3 3 0 1 0 3-3 2.98 2.98 0 0 0-2.201.976L8.683 10.78a5.229 5.229 0 0 1-.707 1.324l4.115 2.195ZM18 3a3 3 0 0 0-6 0c0 .243.037.475.091.701L7.976 5.896c.296.402.534.846.707 1.324l4.116-2.196A2.981 2.981 0 0 0 15 6a3 3 0 0 0 3-3Z"/></symbol><symbol viewBox="0 0 20 18" id="telegram" xmlns="http://www.w3.org/2000/svg"><path d="m.353 8.35 4.609 1.72 1.783 5.736a.542.542 0 0 0 .862.26l2.569-2.095a.767.767 0 0 1 .934-.026l4.633 3.364c.32.232.771.057.851-.328L19.988.655a.543.543 0 0 0-.727-.618L.348 7.333A.544.544 0 0 0 .353 8.35Zm6.105.804 9.006-5.547c.162-.1.329.12.19.248l-7.433 6.91a1.54 1.54 0 0 0-.478.922l-.253 1.876c-.033.25-.385.275-.454.033l-.974-3.422a.907.907 0 0 1 .396-1.02Z"/></symbol><symbol viewBox="0 0 20 12" id="vk" xmlns="http://www.w3.org/2000/svg"><path fill-rule="evenodd" clip-rule="evenodd" d="M9.785 11.769h1.196s.36-.041.545-.247c.17-.19.164-.544.164-.544s-.023-1.662.722-1.906c.733-.241 1.676 1.606 2.675 2.316.755.537 1.33.42 1.33.42l2.67-.04s1.397-.088.735-1.226c-.055-.093-.386-.842-1.986-2.38-1.675-1.61-1.45-1.35.567-4.135 1.228-1.696 1.72-2.732 1.566-3.175C19.823.429 18.92.54 18.92.54l-3.007.02s-.223-.032-.388.07c-.162.1-.266.335-.266.335s-.476 1.312-1.11 2.428c-1.34 2.356-1.875 2.48-2.094 2.334-.51-.341-.382-1.37-.382-2.1 0-2.283.334-3.234-.65-3.48-.328-.083-.568-.137-1.404-.145C8.545-.01 7.636.006 7.122.267c-.342.174-.606.56-.445.582.199.028.649.126.888.463.308.434.297 1.41.297 1.41s.177 2.686-.414 3.02c-.405.229-.961-.238-2.155-2.375-.612-1.095-1.074-2.305-1.074-2.305S4.13.836 3.972.715a1.25 1.25 0 0 0-.463-.193L.652.542S.222.554.065.747c-.14.172-.01.527-.01.527s2.236 5.422 4.77 8.154c2.322 2.505 4.96 2.34 4.96 2.34Z"/></symbol><symbol viewBox="0 0 21 14" id="youtube" xmlns="http://www.w3.org/2000/svg"><path d="M20.567 2.19c-.242-.856-.951-1.531-1.85-1.762C17.073 0 10.5 0 10.5 0S3.927 0 2.283.412C1.401.642.674 1.334.433 2.19 0 3.755 0 7 0 7s0 3.261.432 4.81c.243.856.952 1.531 1.851 1.762C3.943 14 10.5 14 10.5 14s6.573 0 8.216-.412c.9-.23 1.61-.906 1.852-1.762C21 10.26 21 7.016 21 7.016s.017-3.26-.433-4.825ZM8.407 9.999V4.002L13.873 7 8.407 9.998Z"/></symbol></svg>