<svg width="22" height="27" viewBox="0 0 22 27" fill="none" xmlns="http://www.w3.org/2000/svg">
<path d="M11 26.8125C12.5125 26.8125 13.75 25.575 13.75 24.0625H8.25C8.25 24.7918 8.53973 25.4913 9.05546 26.007C9.57118 26.5228 10.2707 26.8125 11 26.8125ZM19.25 18.5625V11.6875C19.25 7.46625 16.995 3.9325 13.0625 2.9975V2.0625C13.0625 0.92125 12.1412 0 11 0C9.85875 0 8.9375 0.92125 8.9375 2.0625V2.9975C4.99125 3.9325 2.75 7.4525 2.75 11.6875V18.5625L0 21.3125V22.6875H22V21.3125L19.25 18.5625Z" fill="#545C67"/>
</svg>
