<svg width="16" height="14" viewBox="0 0 16 14" fill="none" xmlns="http://www.w3.org/2000/svg">
<path d="M4 14V7C1.30933 7 0 8.72773 0 10.5C0 12.2863 1.33 14 4 14ZM16 10.5C16 8.72773 14.6907 7 12 7V14C14.67 14 16 12.2863 16 10.5ZM8 1.89509C5.414 1.89 3.426 3.38991 2.838 5.83736C2.33733 5.92964 1.852 6.08236 1.39733 6.293C1.81667 2.79236 4.27667 0 8 0C11.726 0 14.1933 2.793 14.6107 6.29745C14.1547 6.08491 13.6673 5.93155 13.1647 5.83864C12.5773 3.38864 10.5867 1.89 8 1.89509Z" fill="#989CA2"/>
</svg>
