<svg width="20" height="12" viewBox="0 0 20 12" fill="none" xmlns="http://www.w3.org/2000/svg">
<path fill-rule="evenodd" clip-rule="evenodd" d="M9.78521 11.7687H10.9807C10.9807 11.7687 11.3418 11.7276 11.5262 11.5218C11.6959 11.3328 11.6904 10.9779 11.6904 10.9779C11.6904 10.9779 11.6671 9.31634 12.4116 9.07166C13.1455 8.83064 14.0879 10.6775 15.0868 11.3876C15.8421 11.9251 16.4161 11.8072 16.4161 11.8072L19.087 11.7687C19.087 11.7687 20.4842 11.6796 19.8217 10.5417C19.7674 10.4486 19.4359 9.69994 17.8359 8.16159C16.1612 6.55152 16.3854 6.81194 18.4028 4.02687C19.6314 2.33075 20.1226 1.29524 19.9692 0.851733C19.8228 0.429318 18.9192 0.540969 18.9192 0.540969L15.9119 0.560374C15.9119 0.560374 15.689 0.528875 15.5237 0.631245C15.3621 0.731646 15.2581 0.965634 15.2581 0.965634C15.2581 0.965634 14.7822 2.27816 14.1474 3.39438C12.8082 5.74972 12.2728 5.87402 12.054 5.72778C11.5449 5.38693 11.672 4.35845 11.672 3.6278C11.672 1.3453 12.0062 0.393602 11.0211 0.147241C10.6942 0.0654015 10.4537 0.0114044 9.61769 0.00268615C8.54467 -0.00884448 7.63645 0.00606059 7.12221 0.267046C6.7801 0.440568 6.51619 0.827266 6.67692 0.849483C6.87567 0.877044 7.32584 0.975195 7.5645 1.31183C7.87267 1.74606 7.86181 2.72138 7.86181 2.72138C7.86181 2.72138 8.03884 5.4083 7.44829 5.74212C7.04292 5.97105 6.48686 5.50364 5.29302 3.36682C4.6813 2.27225 4.21945 1.06238 4.21945 1.06238C4.21945 1.06238 4.1304 0.836265 3.97156 0.715334C3.77879 0.568811 3.50944 0.522127 3.50944 0.522127L0.65176 0.541531C0.65176 0.541531 0.222768 0.553906 0.0652904 0.747114C-0.0748108 0.918949 0.0541582 1.27443 0.0541582 1.27443C0.0541582 1.27443 2.29143 6.69607 4.82466 9.42827C7.14746 11.9332 9.78521 11.7687 9.78521 11.7687Z" fill="#2AC880"/>
</svg>
